<?xml version="1.0" encoding="UTF-8"?>
<svg class="img-pot" width="100%" height="100%" version="1.1" viewBox="-42 -25 150 100" xmlns="http://www.w3.org/2000/svg">
    <title>Pot</title>
    <desc>white pot SVG graphic.</desc>
    <g fill="none" fill-rule="evenodd">
        <g transform="translate(-9 -15)" fill="#fff" fill-rule="nonzero">
        <path d="m62 30v3h7c1.6569 0 3 1.3431 3 3s-1.3431 3-3 3h-7v18c0 4.4183-3.5817 8-8 8h-28c-4.4183 0-8-3.5817-8-8v-18h-6c-1.6569 0-3-1.3431-3-3s1.3431-3 3-3h6v-3h44zm-43.868-3c0.80017-2.9271 5.3156-5.2701 15.869-5.8576-0.0011024-0.047334-0.0016567-0.094803-0.0016567-0.1424 0-3.3137 2.6863-6 6-6s6 2.6863 6 6c0 0.068408-0.0011448 0.13655-0.0034163 0.2044 9.8417 0.67662 14.097 2.9625 14.871 5.7956h-42.735zm19.375-5.9829c0.64549-0.011352 1.3097-0.017123 1.9929-0.017123 0.92036 0 1.8062 0.010473 2.6583 0.030954 0.0054661-0.065163 0.0082544-0.13109 0.0082544-0.19766 0-1.2886-1.0447-2.3333-2.3333-2.3333s-2.3333 1.0447-2.3333 2.3333c0 0.061869 0.002408 0.12318 0.0071353 0.18383zm-14.507 36.483c0 0.82843 0.67157 1.5 1.5 1.5s1.5-0.67157 1.5-1.5v-22c0-0.82843-0.67157-1.5-1.5-1.5s-1.5 0.67157-1.5 1.5v22z"/>
        </g>
    </g>
</svg>